<?xml version="1.0"?>
<svg xmlns="http://www.w3.org/2000/svg" id="Capa_1" data-name="Capa 1" viewBox="0 0 525 526">
  <title>ICONS FONT BLOCKCHANGE</title>
  <path d="M205.0155,236.156a173.20411,173.20411,0,0,1,136.67719-66.55258,177.32,177.32,0,0,1,24.53422,1.692V134.25915c-25.09823,22.56019-90.14678,38.63434-166.56945,38.63434-75.95267,0-140.81323-15.88613-166.19346-38.35234v47.65841C46.15411,234.182,203.22948,236.25,205.0155,236.156Z" style="fill:#005b9a"/>
  <path d="M33.37,219.42389l-.094,48.41042c6.11005,26.88424,62.79255,48.69241,136.20718,53.48646a170.86537,170.86537,0,0,1,21.05618-63.54456C118.44074,256.55421,57.62221,241.04408,33.37,219.42389Z" style="fill:#005b9a"/>
  <path d="M33.276,305.43464l-.094,46.0604a6.08114,6.08114,0,0,1,.846-.752c1.786,29.70427,65.23657,54.05047,146.73529,57.52851a172.06578,172.06578,0,0,1-12.5961-65.04858v-.094C105.93863,339.27494,54.89619,324.79882,33.276,305.43464Z" style="fill:#005b9a"/>
  <path d="M191.57338,430.17374c-73.50864-1.222-135.26718-17.48416-158.39138-39.66836l-.094,43.42839c0,32.71227,74.54266,59.22052,166.56945,59.22052a452.76977,452.76977,0,0,0,50.38445-2.726A174.98047,174.98047,0,0,1,191.57338,430.17374Z" style="fill:#005b9a"/>
  <ellipse cx="199.65745" cy="91.95878" rx="166.75745" ry="59.12652" style="fill:#005b9a"/>
  <path d="M341.69269,192.82165A150.2603,150.2603,0,1,0,492,343.03494,150.31973,150.31973,0,0,0,341.69269,192.82165Zm13.72413,230.49v9.49409a13.72413,13.72413,0,1,1-27.44825,0v-9.49409a48.63856,48.63856,0,0,1-21.24419-13.06611,13.76265,13.76265,0,0,1,.564-19.36417c5.546-5.17,13.91211-4.606,19.36418.564,6.016,5.73406,15.98014,6.392,16.45014,6.392a20.566,20.566,0,0,0-1.41-41.07834,47.959,47.959,0,0,1-13.72413-93.90681v-9.49409a13.72413,13.72413,0,1,1,27.44825,0v9.49409A48.63869,48.63869,0,0,1,376.661,275.91839a13.76265,13.76265,0,0,1-.564,19.36417c-5.546,5.17-14.66413,5.35806-19.36417-.564-4.982-6.29807-15.98014-6.392-16.45014-6.392a20.566,20.566,0,0,0,1.41,41.07834,47.959,47.959,0,0,1,13.72413,93.90681Z" style="fill:#005b9a"/>
</svg>
